<?xml version="1.0" encoding="UTF-8" standalone="no"?>
<!DOCTYPE svg PUBLIC "-//W3C//DTD SVG 1.0//EN"
 "http://www.w3.org/TR/2001/REC-SVG-20010904/DTD/svg10.dtd" [
 <!ATTLIST svg xmlns:xlink CDATA #FIXED "http://www.w3.org/1999/xlink">
]>
<!-- Generated by Graphviz version 2.20.2 (Tue Mar &#160;2 21:46:26 UTC 2010)
     For user: (moose) moose,,, -->
<!-- Title: binary_search_tree Pages: 1 -->
<svg width="800pt" height="548pt"
 viewBox="0.00 0.00 800.00 548.00" xmlns="http://www.w3.org/2000/svg" xmlns:xlink="http://www.w3.org/1999/xlink">
<g id="graph0" class="graph" transform="scale(1 1) rotate(0) translate(4 544)">
<title>binary_search_tree</title>
<polygon style="fill:white;stroke:white;" points="-4,4 -4,-544 796,-544 796,4 -4,4"/>
<!-- N163357996 -->
<g id="node1" class="node"><title>N163357996</title>
<ellipse style="fill:none;stroke:black;" cx="243" cy="-522" rx="27.1004" ry="18"/>
<text text-anchor="middle" x="243" y="-517.9" style="font-family:Times New Roman;font-size:14.00;">&#45;10</text>
</g>
<!-- N163358028 -->
<g id="node2" class="node"><title>N163358028</title>
<ellipse style="fill:none;stroke:black;" cx="153" cy="-450" rx="27.1004" ry="18"/>
<text text-anchor="middle" x="153" y="-445.9" style="font-family:Times New Roman;font-size:14.00;">&#45;42</text>
</g>
<!-- N163357996&#45;&gt;N163358028 -->
<g id="edge28" class="edge"><title>N163357996&#45;&gt;N163358028</title>
<path style="fill:none;stroke:black;" d="M226,-508C213,-497 193,-483 178,-470"/>
<polygon style="fill:black;stroke:black;" points="180.1,-467.2 170,-464 175.9,-472.8 180.1,-467.2"/>
</g>
<!-- N163358060 -->
<g id="node30" class="node"><title>N163358060</title>
<ellipse style="fill:none;stroke:black;" cx="315" cy="-450" rx="27" ry="18"/>
<text text-anchor="middle" x="315" y="-445.9" style="font-family:Times New Roman;font-size:14.00;">22</text>
</g>
<!-- N163357996&#45;&gt;N163358060 -->
<g id="edge96" class="edge"><title>N163357996&#45;&gt;N163358060</title>
<path style="fill:none;stroke:black;" d="M258,-507C268,-497 281,-484 293,-472"/>
<polygon style="fill:black;stroke:black;" points="295.404,-474.546 300,-465 290.454,-469.596 295.404,-474.546"/>
</g>
<!-- N163358220 -->
<g id="node3" class="node"><title>N163358220</title>
<ellipse style="fill:none;stroke:black;" cx="45" cy="-378" rx="27.1004" ry="18"/>
<text text-anchor="middle" x="45" y="-373.9" style="font-family:Times New Roman;font-size:14.00;">&#45;43</text>
</g>
<!-- N163358028&#45;&gt;N163358220 -->
<g id="edge6" class="edge"><title>N163358028&#45;&gt;N163358220</title>
<path style="fill:none;stroke:black;" d="M134,-437C117,-426 92,-409 72,-397"/>
<polygon style="fill:black;stroke:black;" points="74.1,-394.2 64,-391 69.9,-399.8 74.1,-394.2"/>
</g>
<!-- N163358092 -->
<g id="node9" class="node"><title>N163358092</title>
<ellipse style="fill:none;stroke:black;" cx="153" cy="-378" rx="27.1004" ry="18"/>
<text text-anchor="middle" x="153" y="-373.9" style="font-family:Times New Roman;font-size:14.00;">&#45;28</text>
</g>
<!-- N163358028&#45;&gt;N163358092 -->
<g id="edge26" class="edge"><title>N163358028&#45;&gt;N163358092</title>
<path style="fill:none;stroke:black;" d="M153,-432C153,-424 153,-415 153,-406"/>
<polygon style="fill:black;stroke:black;" points="156.5,-406 153,-396 149.5,-406 156.5,-406"/>
</g>
<!-- N163358668 -->
<g id="node4" class="node"><title>N163358668</title>
<ellipse style="fill:none;stroke:black;" cx="27" cy="-306" rx="27.1004" ry="18"/>
<text text-anchor="middle" x="27" y="-301.9" style="font-family:Times New Roman;font-size:14.00;">&#45;46</text>
</g>
<!-- N163358220&#45;&gt;N163358668 -->
<g id="edge4" class="edge"><title>N163358220&#45;&gt;N163358668</title>
<path style="fill:none;stroke:black;" d="M41,-360C39,-352 36,-343 34,-334"/>
<polygon style="fill:black;stroke:black;" points="37.2259,-332.573 31,-324 30.5212,-334.584 37.2259,-332.573"/>
</g>
<!-- N163359308 -->
<g id="node5" class="node"><title>N163359308</title>
<ellipse style="fill:none;stroke:black;" cx="27" cy="-234" rx="27.1004" ry="18"/>
<text text-anchor="middle" x="27" y="-229.9" style="font-family:Times New Roman;font-size:14.00;">&#45;46</text>
</g>
<!-- N163358668&#45;&gt;N163359308 -->
<g id="edge2" class="edge"><title>N163358668&#45;&gt;N163359308</title>
<path style="fill:none;stroke:black;" d="M27,-288C27,-280 27,-271 27,-262"/>
<polygon style="fill:black;stroke:black;" points="30.5001,-262 27,-252 23.5001,-262 30.5001,-262"/>
</g>
<!-- N163358540 -->
<g id="node10" class="node"><title>N163358540</title>
<ellipse style="fill:none;stroke:black;" cx="99" cy="-306" rx="27.1004" ry="18"/>
<text text-anchor="middle" x="99" y="-301.9" style="font-family:Times New Roman;font-size:14.00;">&#45;30</text>
</g>
<!-- N163358092&#45;&gt;N163358540 -->
<g id="edge8" class="edge"><title>N163358092&#45;&gt;N163358540</title>
<path style="fill:none;stroke:black;" d="M141,-362C134,-353 125,-341 117,-330"/>
<polygon style="fill:black;stroke:black;" points="119.8,-327.9 111,-322 114.2,-332.1 119.8,-327.9"/>
</g>
<!-- N163358252 -->
<g id="node12" class="node"><title>N163358252</title>
<ellipse style="fill:none;stroke:black;" cx="171" cy="-306" rx="27.1004" ry="18"/>
<text text-anchor="middle" x="171" y="-301.9" style="font-family:Times New Roman;font-size:14.00;">&#45;16</text>
</g>
<!-- N163358092&#45;&gt;N163358252 -->
<g id="edge24" class="edge"><title>N163358092&#45;&gt;N163358252</title>
<path style="fill:none;stroke:black;" d="M157,-360C159,-352 162,-343 164,-334"/>
<polygon style="fill:black;stroke:black;" points="167.479,-334.584 167,-324 160.774,-332.573 167.479,-334.584"/>
</g>
<!-- N163358476 -->
<g id="node13" class="node"><title>N163358476</title>
<ellipse style="fill:none;stroke:black;" cx="99" cy="-234" rx="27.1004" ry="18"/>
<text text-anchor="middle" x="99" y="-229.9" style="font-family:Times New Roman;font-size:14.00;">&#45;19</text>
</g>
<!-- N163358252&#45;&gt;N163358476 -->
<g id="edge14" class="edge"><title>N163358252&#45;&gt;N163358476</title>
<path style="fill:none;stroke:black;" d="M156,-291C146,-281 133,-268 121,-256"/>
<polygon style="fill:black;stroke:black;" points="123.546,-253.596 114,-249 118.596,-258.546 123.546,-253.596"/>
</g>
<!-- N163358572 -->
<g id="node19" class="node"><title>N163358572</title>
<ellipse style="fill:none;stroke:black;" cx="171" cy="-234" rx="27.1004" ry="18"/>
<text text-anchor="middle" x="171" y="-229.9" style="font-family:Times New Roman;font-size:14.00;">&#45;13</text>
</g>
<!-- N163358252&#45;&gt;N163358572 -->
<g id="edge22" class="edge"><title>N163358252&#45;&gt;N163358572</title>
<path style="fill:none;stroke:black;" d="M171,-288C171,-280 171,-271 171,-262"/>
<polygon style="fill:black;stroke:black;" points="174.5,-262 171,-252 167.5,-262 174.5,-262"/>
</g>
<!-- N163359116 -->
<g id="node14" class="node"><title>N163359116</title>
<ellipse style="fill:none;stroke:black;" cx="27" cy="-162" rx="27.1004" ry="18"/>
<text text-anchor="middle" x="27" y="-157.9" style="font-family:Times New Roman;font-size:14.00;">&#45;19</text>
</g>
<!-- N163358476&#45;&gt;N163359116 -->
<g id="edge10" class="edge"><title>N163358476&#45;&gt;N163359116</title>
<path style="fill:none;stroke:black;" d="M84,-219C74,-209 61,-196 49,-184"/>
<polygon style="fill:black;stroke:black;" points="51.546,-181.596 42,-177 46.5962,-186.546 51.546,-181.596"/>
</g>
<!-- N163358796 -->
<g id="node16" class="node"><title>N163358796</title>
<ellipse style="fill:none;stroke:black;" cx="99" cy="-162" rx="27.1004" ry="18"/>
<text text-anchor="middle" x="99" y="-157.9" style="font-family:Times New Roman;font-size:14.00;">&#45;17</text>
</g>
<!-- N163358476&#45;&gt;N163358796 -->
<g id="edge12" class="edge"><title>N163358476&#45;&gt;N163358796</title>
<path style="fill:none;stroke:black;" d="M99,-216C99,-208 99,-199 99,-190"/>
<polygon style="fill:black;stroke:black;" points="102.5,-190 99,-180 95.5001,-190 102.5,-190"/>
</g>
<!-- N163358604 -->
<g id="node20" class="node"><title>N163358604</title>
<ellipse style="fill:none;stroke:black;" cx="171" cy="-162" rx="27.1004" ry="18"/>
<text text-anchor="middle" x="171" y="-157.9" style="font-family:Times New Roman;font-size:14.00;">&#45;11</text>
</g>
<!-- N163358572&#45;&gt;N163358604 -->
<g id="edge20" class="edge"><title>N163358572&#45;&gt;N163358604</title>
<path style="fill:none;stroke:black;" d="M171,-216C171,-208 171,-199 171,-190"/>
<polygon style="fill:black;stroke:black;" points="174.5,-190 171,-180 167.5,-190 174.5,-190"/>
</g>
<!-- N163358764 -->
<g id="node21" class="node"><title>N163358764</title>
<ellipse style="fill:none;stroke:black;" cx="171" cy="-90" rx="27.1004" ry="18"/>
<text text-anchor="middle" x="171" y="-85.9" style="font-family:Times New Roman;font-size:14.00;">&#45;12</text>
</g>
<!-- N163358604&#45;&gt;N163358764 -->
<g id="edge18" class="edge"><title>N163358604&#45;&gt;N163358764</title>
<path style="fill:none;stroke:black;" d="M171,-144C171,-136 171,-127 171,-118"/>
<polygon style="fill:black;stroke:black;" points="174.5,-118 171,-108 167.5,-118 174.5,-118"/>
</g>
<!-- N163359468 -->
<g id="node22" class="node"><title>N163359468</title>
<ellipse style="fill:none;stroke:black;" cx="171" cy="-18" rx="27.1004" ry="18"/>
<text text-anchor="middle" x="171" y="-13.9" style="font-family:Times New Roman;font-size:14.00;">&#45;11</text>
</g>
<!-- N163358764&#45;&gt;N163359468 -->
<g id="edge16" class="edge"><title>N163358764&#45;&gt;N163359468</title>
<path style="fill:none;stroke:black;" d="M171,-72C171,-64 171,-55 171,-46"/>
<polygon style="fill:black;stroke:black;" points="174.5,-46 171,-36 167.5,-46 174.5,-46"/>
</g>
<!-- N163358124 -->
<g id="node31" class="node"><title>N163358124</title>
<ellipse style="fill:none;stroke:black;" cx="315" cy="-378" rx="27" ry="18"/>
<text text-anchor="middle" x="315" y="-373.9" style="font-family:Times New Roman;font-size:14.00;">&#45;7</text>
</g>
<!-- N163358060&#45;&gt;N163358124 -->
<g id="edge68" class="edge"><title>N163358060&#45;&gt;N163358124</title>
<path style="fill:none;stroke:black;" d="M315,-432C315,-424 315,-415 315,-406"/>
<polygon style="fill:black;stroke:black;" points="318.5,-406 315,-396 311.5,-406 318.5,-406"/>
</g>
<!-- N163358156 -->
<g id="node71" class="node"><title>N163358156</title>
<ellipse style="fill:none;stroke:black;" cx="549" cy="-378" rx="27" ry="18"/>
<text text-anchor="middle" x="549" y="-373.9" style="font-family:Times New Roman;font-size:14.00;">32</text>
</g>
<!-- N163358060&#45;&gt;N163358156 -->
<g id="edge94" class="edge"><title>N163358060&#45;&gt;N163358156</title>
<path style="fill:none;stroke:black;" d="M340,-442C382,-430 467,-403 514,-389"/>
<polygon style="fill:black;stroke:black;" points="515.427,-392.226 524,-386 513.416,-385.521 515.427,-392.226"/>
</g>
<!-- N163358700 -->
<g id="node32" class="node"><title>N163358700</title>
<ellipse style="fill:none;stroke:black;" cx="279" cy="-306" rx="27" ry="18"/>
<text text-anchor="middle" x="279" y="-301.9" style="font-family:Times New Roman;font-size:14.00;">&#45;8</text>
</g>
<!-- N163358124&#45;&gt;N163358700 -->
<g id="edge30" class="edge"><title>N163358124&#45;&gt;N163358700</title>
<path style="fill:none;stroke:black;" d="M306,-361C302,-352 297,-342 292,-332"/>
<polygon style="fill:black;stroke:black;" points="295.26,-330.717 288,-323 288.863,-333.56 295.26,-330.717"/>
</g>
<!-- N163358284 -->
<g id="node34" class="node"><title>N163358284</title>
<ellipse style="fill:none;stroke:black;" cx="351" cy="-306" rx="27" ry="18"/>
<text text-anchor="middle" x="351" y="-301.9" style="font-family:Times New Roman;font-size:14.00;">&#45;1</text>
</g>
<!-- N163358124&#45;&gt;N163358284 -->
<g id="edge66" class="edge"><title>N163358124&#45;&gt;N163358284</title>
<path style="fill:none;stroke:black;" d="M324,-361C328,-352 333,-342 338,-332"/>
<polygon style="fill:black;stroke:black;" points="341.137,-333.56 342,-323 334.74,-330.717 341.137,-333.56"/>
</g>
<!-- N163358412 -->
<g id="node35" class="node"><title>N163358412</title>
<ellipse style="fill:none;stroke:black;" cx="315" cy="-234" rx="27" ry="18"/>
<text text-anchor="middle" x="315" y="-229.9" style="font-family:Times New Roman;font-size:14.00;">&#45;3</text>
</g>
<!-- N163358284&#45;&gt;N163358412 -->
<g id="edge38" class="edge"><title>N163358284&#45;&gt;N163358412</title>
<path style="fill:none;stroke:black;" d="M342,-289C338,-280 333,-270 328,-260"/>
<polygon style="fill:black;stroke:black;" points="331.26,-258.717 324,-251 324.863,-261.56 331.26,-258.717"/>
</g>
<!-- N163358444 -->
<g id="node43" class="node"><title>N163358444</title>
<ellipse style="fill:none;stroke:black;" cx="387" cy="-234" rx="27" ry="18"/>
<text text-anchor="middle" x="387" y="-229.9" style="font-family:Times New Roman;font-size:14.00;">13</text>
</g>
<!-- N163358284&#45;&gt;N163358444 -->
<g id="edge64" class="edge"><title>N163358284&#45;&gt;N163358444</title>
<path style="fill:none;stroke:black;" d="M360,-289C364,-280 369,-270 374,-260"/>
<polygon style="fill:black;stroke:black;" points="377.137,-261.56 378,-251 370.74,-258.717 377.137,-261.56"/>
</g>
<!-- N163358988 -->
<g id="node36" class="node"><title>N163358988</title>
<ellipse style="fill:none;stroke:black;" cx="243" cy="-162" rx="27" ry="18"/>
<text text-anchor="middle" x="243" y="-157.9" style="font-family:Times New Roman;font-size:14.00;">&#45;4</text>
</g>
<!-- N163358412&#45;&gt;N163358988 -->
<g id="edge34" class="edge"><title>N163358412&#45;&gt;N163358988</title>
<path style="fill:none;stroke:black;" d="M300,-219C290,-209 277,-196 265,-184"/>
<polygon style="fill:black;stroke:black;" points="267.546,-181.596 258,-177 262.596,-186.546 267.546,-181.596"/>
</g>
<!-- N163359436 -->
<g id="node40" class="node"><title>N163359436</title>
<ellipse style="fill:none;stroke:black;" cx="315" cy="-162" rx="27" ry="18"/>
<text text-anchor="middle" x="315" y="-157.9" style="font-family:Times New Roman;font-size:14.00;">&#45;1</text>
</g>
<!-- N163358412&#45;&gt;N163359436 -->
<g id="edge36" class="edge"><title>N163358412&#45;&gt;N163359436</title>
<path style="fill:none;stroke:black;" d="M315,-216C315,-208 315,-199 315,-190"/>
<polygon style="fill:black;stroke:black;" points="318.5,-190 315,-180 311.5,-190 318.5,-190"/>
</g>
<!-- N163359500 -->
<g id="node37" class="node"><title>N163359500</title>
<ellipse style="fill:none;stroke:black;" cx="243" cy="-90" rx="27" ry="18"/>
<text text-anchor="middle" x="243" y="-85.9" style="font-family:Times New Roman;font-size:14.00;">&#45;4</text>
</g>
<!-- N163358988&#45;&gt;N163359500 -->
<g id="edge32" class="edge"><title>N163358988&#45;&gt;N163359500</title>
<path style="fill:none;stroke:black;" d="M243,-144C243,-136 243,-127 243,-118"/>
<polygon style="fill:black;stroke:black;" points="246.5,-118 243,-108 239.5,-118 246.5,-118"/>
</g>
<!-- N163358732 -->
<g id="node44" class="node"><title>N163358732</title>
<ellipse style="fill:none;stroke:black;" cx="387" cy="-162" rx="27" ry="18"/>
<text text-anchor="middle" x="387" y="-157.9" style="font-family:Times New Roman;font-size:14.00;">1</text>
</g>
<!-- N163358444&#45;&gt;N163358732 -->
<g id="edge50" class="edge"><title>N163358444&#45;&gt;N163358732</title>
<path style="fill:none;stroke:black;" d="M387,-216C387,-208 387,-199 387,-190"/>
<polygon style="fill:black;stroke:black;" points="390.5,-190 387,-180 383.5,-190 390.5,-190"/>
</g>
<!-- N163358636 -->
<g id="node56" class="node"><title>N163358636</title>
<ellipse style="fill:none;stroke:black;" cx="459" cy="-162" rx="27" ry="18"/>
<text text-anchor="middle" x="459" y="-157.9" style="font-family:Times New Roman;font-size:14.00;">17</text>
</g>
<!-- N163358444&#45;&gt;N163358636 -->
<g id="edge62" class="edge"><title>N163358444&#45;&gt;N163358636</title>
<path style="fill:none;stroke:black;" d="M402,-219C412,-209 425,-196 437,-184"/>
<polygon style="fill:black;stroke:black;" points="439.404,-186.546 444,-177 434.454,-181.596 439.404,-186.546"/>
</g>
<!-- N163359276 -->
<g id="node45" class="node"><title>N163359276</title>
<ellipse style="fill:none;stroke:black;" cx="315" cy="-90" rx="27" ry="18"/>
<text text-anchor="middle" x="315" y="-85.9" style="font-family:Times New Roman;font-size:14.00;">0</text>
</g>
<!-- N163358732&#45;&gt;N163359276 -->
<g id="edge42" class="edge"><title>N163358732&#45;&gt;N163359276</title>
<path style="fill:none;stroke:black;" d="M372,-147C362,-137 349,-124 337,-112"/>
<polygon style="fill:black;stroke:black;" points="339.546,-109.596 330,-105 334.596,-114.546 339.546,-109.596"/>
</g>
<!-- N163358828 -->
<g id="node49" class="node"><title>N163358828</title>
<ellipse style="fill:none;stroke:black;" cx="387" cy="-90" rx="27" ry="18"/>
<text text-anchor="middle" x="387" y="-85.9" style="font-family:Times New Roman;font-size:14.00;">8</text>
</g>
<!-- N163358732&#45;&gt;N163358828 -->
<g id="edge48" class="edge"><title>N163358732&#45;&gt;N163358828</title>
<path style="fill:none;stroke:black;" d="M387,-144C387,-136 387,-127 387,-118"/>
<polygon style="fill:black;stroke:black;" points="390.5,-118 387,-108 383.5,-118 390.5,-118"/>
</g>
<!-- N163359564 -->
<g id="node46" class="node"><title>N163359564</title>
<ellipse style="fill:none;stroke:black;" cx="243" cy="-18" rx="27" ry="18"/>
<text text-anchor="middle" x="243" y="-13.9" style="font-family:Times New Roman;font-size:14.00;">0</text>
</g>
<!-- N163359276&#45;&gt;N163359564 -->
<g id="edge40" class="edge"><title>N163359276&#45;&gt;N163359564</title>
<path style="fill:none;stroke:black;" d="M300,-75C290,-65 277,-52 265,-40"/>
<polygon style="fill:black;stroke:black;" points="267.546,-37.5962 258,-33 262.596,-42.546 267.546,-37.5962"/>
</g>
<!-- N163359212 -->
<g id="node50" class="node"><title>N163359212</title>
<ellipse style="fill:none;stroke:black;" cx="315" cy="-18" rx="27" ry="18"/>
<text text-anchor="middle" x="315" y="-13.9" style="font-family:Times New Roman;font-size:14.00;">2</text>
</g>
<!-- N163358828&#45;&gt;N163359212 -->
<g id="edge44" class="edge"><title>N163358828&#45;&gt;N163359212</title>
<path style="fill:none;stroke:black;" d="M372,-75C362,-65 349,-52 337,-40"/>
<polygon style="fill:black;stroke:black;" points="339.546,-37.5962 330,-33 334.596,-42.546 339.546,-37.5962"/>
</g>
<!-- N163359372 -->
<g id="node52" class="node"><title>N163359372</title>
<ellipse style="fill:none;stroke:black;" cx="387" cy="-18" rx="27" ry="18"/>
<text text-anchor="middle" x="387" y="-13.9" style="font-family:Times New Roman;font-size:14.00;">13</text>
</g>
<!-- N163358828&#45;&gt;N163359372 -->
<g id="edge46" class="edge"><title>N163358828&#45;&gt;N163359372</title>
<path style="fill:none;stroke:black;" d="M387,-72C387,-64 387,-55 387,-46"/>
<polygon style="fill:black;stroke:black;" points="390.5,-46 387,-36 383.5,-46 390.5,-46"/>
</g>
<!-- N163358860 -->
<g id="node57" class="node"><title>N163358860</title>
<ellipse style="fill:none;stroke:black;" cx="459" cy="-90" rx="27" ry="18"/>
<text text-anchor="middle" x="459" y="-85.9" style="font-family:Times New Roman;font-size:14.00;">17</text>
</g>
<!-- N163358636&#45;&gt;N163358860 -->
<g id="edge54" class="edge"><title>N163358636&#45;&gt;N163358860</title>
<path style="fill:none;stroke:black;" d="M459,-144C459,-136 459,-127 459,-118"/>
<polygon style="fill:black;stroke:black;" points="462.5,-118 459,-108 455.5,-118 462.5,-118"/>
</g>
<!-- N163358892 -->
<g id="node61" class="node"><title>N163358892</title>
<ellipse style="fill:none;stroke:black;" cx="531" cy="-90" rx="27" ry="18"/>
<text text-anchor="middle" x="531" y="-85.9" style="font-family:Times New Roman;font-size:14.00;">19</text>
</g>
<!-- N163358636&#45;&gt;N163358892 -->
<g id="edge60" class="edge"><title>N163358636&#45;&gt;N163358892</title>
<path style="fill:none;stroke:black;" d="M474,-147C484,-137 497,-124 509,-112"/>
<polygon style="fill:black;stroke:black;" points="511.404,-114.546 516,-105 506.454,-109.596 511.404,-114.546"/>
</g>
<!-- N163359148 -->
<g id="node58" class="node"><title>N163359148</title>
<ellipse style="fill:none;stroke:black;" cx="459" cy="-18" rx="27" ry="18"/>
<text text-anchor="middle" x="459" y="-13.9" style="font-family:Times New Roman;font-size:14.00;">16</text>
</g>
<!-- N163358860&#45;&gt;N163359148 -->
<g id="edge52" class="edge"><title>N163358860&#45;&gt;N163359148</title>
<path style="fill:none;stroke:black;" d="M459,-72C459,-64 459,-55 459,-46"/>
<polygon style="fill:black;stroke:black;" points="462.5,-46 459,-36 455.5,-46 462.5,-46"/>
</g>
<!-- N163358956 -->
<g id="node62" class="node"><title>N163358956</title>
<ellipse style="fill:none;stroke:black;" cx="531" cy="-18" rx="27" ry="18"/>
<text text-anchor="middle" x="531" y="-13.9" style="font-family:Times New Roman;font-size:14.00;">18</text>
</g>
<!-- N163358892&#45;&gt;N163358956 -->
<g id="edge56" class="edge"><title>N163358892&#45;&gt;N163358956</title>
<path style="fill:none;stroke:black;" d="M531,-72C531,-64 531,-55 531,-46"/>
<polygon style="fill:black;stroke:black;" points="534.5,-46 531,-36 527.5,-46 534.5,-46"/>
</g>
<!-- N163359020 -->
<g id="node64" class="node"><title>N163359020</title>
<ellipse style="fill:none;stroke:black;" cx="603" cy="-18" rx="27" ry="18"/>
<text text-anchor="middle" x="603" y="-13.9" style="font-family:Times New Roman;font-size:14.00;">20</text>
</g>
<!-- N163358892&#45;&gt;N163359020 -->
<g id="edge58" class="edge"><title>N163358892&#45;&gt;N163359020</title>
<path style="fill:none;stroke:black;" d="M546,-75C556,-65 569,-52 581,-40"/>
<polygon style="fill:black;stroke:black;" points="583.404,-42.546 588,-33 578.454,-37.5962 583.404,-42.546"/>
</g>
<!-- N163358188 -->
<g id="node72" class="node"><title>N163358188</title>
<ellipse style="fill:none;stroke:black;" cx="549" cy="-306" rx="27" ry="18"/>
<text text-anchor="middle" x="549" y="-301.9" style="font-family:Times New Roman;font-size:14.00;">25</text>
</g>
<!-- N163358156&#45;&gt;N163358188 -->
<g id="edge78" class="edge"><title>N163358156&#45;&gt;N163358188</title>
<path style="fill:none;stroke:black;" d="M549,-360C549,-352 549,-343 549,-334"/>
<polygon style="fill:black;stroke:black;" points="552.5,-334 549,-324 545.5,-334 552.5,-334"/>
</g>
<!-- N163358316 -->
<g id="node82" class="node"><title>N163358316</title>
<ellipse style="fill:none;stroke:black;" cx="639" cy="-306" rx="27" ry="18"/>
<text text-anchor="middle" x="639" y="-301.9" style="font-family:Times New Roman;font-size:14.00;">45</text>
</g>
<!-- N163358156&#45;&gt;N163358316 -->
<g id="edge92" class="edge"><title>N163358156&#45;&gt;N163358316</title>
<path style="fill:none;stroke:black;" d="M566,-364C580,-353 599,-339 614,-326"/>
<polygon style="fill:black;stroke:black;" points="616.1,-328.8 622,-320 611.9,-323.2 616.1,-328.8"/>
</g>
<!-- N163358348 -->
<g id="node73" class="node"><title>N163358348</title>
<ellipse style="fill:none;stroke:black;" cx="513" cy="-234" rx="27" ry="18"/>
<text text-anchor="middle" x="513" y="-229.9" style="font-family:Times New Roman;font-size:14.00;">25</text>
</g>
<!-- N163358188&#45;&gt;N163358348 -->
<g id="edge70" class="edge"><title>N163358188&#45;&gt;N163358348</title>
<path style="fill:none;stroke:black;" d="M540,-289C536,-280 531,-270 526,-260"/>
<polygon style="fill:black;stroke:black;" points="529.26,-258.717 522,-251 522.863,-261.56 529.26,-258.717"/>
</g>
<!-- N163359180 -->
<g id="node75" class="node"><title>N163359180</title>
<ellipse style="fill:none;stroke:black;" cx="585" cy="-234" rx="27" ry="18"/>
<text text-anchor="middle" x="585" y="-229.9" style="font-family:Times New Roman;font-size:14.00;">30</text>
</g>
<!-- N163358188&#45;&gt;N163359180 -->
<g id="edge76" class="edge"><title>N163358188&#45;&gt;N163359180</title>
<path style="fill:none;stroke:black;" d="M558,-289C562,-280 567,-270 572,-260"/>
<polygon style="fill:black;stroke:black;" points="575.137,-261.56 576,-251 568.74,-258.717 575.137,-261.56"/>
</g>
<!-- N163359244 -->
<g id="node76" class="node"><title>N163359244</title>
<ellipse style="fill:none;stroke:black;" cx="585" cy="-162" rx="27" ry="18"/>
<text text-anchor="middle" x="585" y="-157.9" style="font-family:Times New Roman;font-size:14.00;">26</text>
</g>
<!-- N163359180&#45;&gt;N163359244 -->
<g id="edge74" class="edge"><title>N163359180&#45;&gt;N163359244</title>
<path style="fill:none;stroke:black;" d="M585,-216C585,-208 585,-199 585,-190"/>
<polygon style="fill:black;stroke:black;" points="588.5,-190 585,-180 581.5,-190 588.5,-190"/>
</g>
<!-- N163359404 -->
<g id="node77" class="node"><title>N163359404</title>
<ellipse style="fill:none;stroke:black;" cx="603" cy="-90" rx="27" ry="18"/>
<text text-anchor="middle" x="603" y="-85.9" style="font-family:Times New Roman;font-size:14.00;">29</text>
</g>
<!-- N163359244&#45;&gt;N163359404 -->
<g id="edge72" class="edge"><title>N163359244&#45;&gt;N163359404</title>
<path style="fill:none;stroke:black;" d="M589,-144C591,-136 594,-127 596,-118"/>
<polygon style="fill:black;stroke:black;" points="599.479,-118.584 599,-108 592.774,-116.573 599.479,-118.584"/>
</g>
<!-- N163358380 -->
<g id="node83" class="node"><title>N163358380</title>
<ellipse style="fill:none;stroke:black;" cx="657" cy="-234" rx="27" ry="18"/>
<text text-anchor="middle" x="657" y="-229.9" style="font-family:Times New Roman;font-size:14.00;">35</text>
</g>
<!-- N163358316&#45;&gt;N163358380 -->
<g id="edge90" class="edge"><title>N163358316&#45;&gt;N163358380</title>
<path style="fill:none;stroke:black;" d="M643,-288C645,-280 648,-271 650,-262"/>
<polygon style="fill:black;stroke:black;" points="653.479,-262.584 653,-252 646.774,-260.573 653.479,-262.584"/>
</g>
<!-- N163359084 -->
<g id="node84" class="node"><title>N163359084</title>
<ellipse style="fill:none;stroke:black;" cx="657" cy="-162" rx="27" ry="18"/>
<text text-anchor="middle" x="657" y="-157.9" style="font-family:Times New Roman;font-size:14.00;">33</text>
</g>
<!-- N163358380&#45;&gt;N163359084 -->
<g id="edge80" class="edge"><title>N163358380&#45;&gt;N163359084</title>
<path style="fill:none;stroke:black;" d="M657,-216C657,-208 657,-199 657,-190"/>
<polygon style="fill:black;stroke:black;" points="660.5,-190 657,-180 653.5,-190 660.5,-190"/>
</g>
<!-- N163358508 -->
<g id="node86" class="node"><title>N163358508</title>
<ellipse style="fill:none;stroke:black;" cx="729" cy="-162" rx="27" ry="18"/>
<text text-anchor="middle" x="729" y="-157.9" style="font-family:Times New Roman;font-size:14.00;">40</text>
</g>
<!-- N163358380&#45;&gt;N163358508 -->
<g id="edge88" class="edge"><title>N163358380&#45;&gt;N163358508</title>
<path style="fill:none;stroke:black;" d="M672,-219C682,-209 695,-196 707,-184"/>
<polygon style="fill:black;stroke:black;" points="709.404,-186.546 714,-177 704.454,-181.596 709.404,-186.546"/>
</g>
<!-- N163358924 -->
<g id="node87" class="node"><title>N163358924</title>
<ellipse style="fill:none;stroke:black;" cx="693" cy="-90" rx="27" ry="18"/>
<text text-anchor="middle" x="693" y="-85.9" style="font-family:Times New Roman;font-size:14.00;">38</text>
</g>
<!-- N163358508&#45;&gt;N163358924 -->
<g id="edge84" class="edge"><title>N163358508&#45;&gt;N163358924</title>
<path style="fill:none;stroke:black;" d="M720,-145C716,-136 711,-126 706,-116"/>
<polygon style="fill:black;stroke:black;" points="709.26,-114.717 702,-107 702.863,-117.56 709.26,-114.717"/>
</g>
<!-- N163359052 -->
<g id="node91" class="node"><title>N163359052</title>
<ellipse style="fill:none;stroke:black;" cx="765" cy="-90" rx="27" ry="18"/>
<text text-anchor="middle" x="765" y="-85.9" style="font-family:Times New Roman;font-size:14.00;">45</text>
</g>
<!-- N163358508&#45;&gt;N163359052 -->
<g id="edge86" class="edge"><title>N163358508&#45;&gt;N163359052</title>
<path style="fill:none;stroke:black;" d="M738,-145C742,-136 747,-126 752,-116"/>
<polygon style="fill:black;stroke:black;" points="755.137,-117.56 756,-107 748.74,-114.717 755.137,-117.56"/>
</g>
<!-- N163359340 -->
<g id="node88" class="node"><title>N163359340</title>
<ellipse style="fill:none;stroke:black;" cx="693" cy="-18" rx="27" ry="18"/>
<text text-anchor="middle" x="693" y="-13.9" style="font-family:Times New Roman;font-size:14.00;">40</text>
</g>
<!-- N163358924&#45;&gt;N163359340 -->
<g id="edge82" class="edge"><title>N163358924&#45;&gt;N163359340</title>
<path style="fill:none;stroke:black;" d="M693,-72C693,-64 693,-55 693,-46"/>
<polygon style="fill:black;stroke:black;" points="696.5,-46 693,-36 689.5,-46 696.5,-46"/>
</g>
</g>
</svg>
